<svg width="35" height="35" viewBox="0 0 35 35" fill="none" xmlns="http://www.w3.org/2000/svg">
    <rect width="35" height="35" rx="17.5" fill="#0B0C0C"/>
    <path d="M15.2588 6.99414H19.6973L19.3164 20.8955H15.6543L15.2588 6.99414ZM14.6875 25.4805C14.6875 25.0996 14.7607 24.7432 14.9072 24.4111C15.0537 24.0693 15.2539 23.7715 15.5078 23.5176C15.7715 23.2637 16.0742 23.0635 16.416 22.917C16.7578 22.7705 17.124 22.6973 17.5146 22.6973C17.8955 22.6973 18.252 22.7705 18.584 22.917C18.9258 23.0635 19.2236 23.2637 19.4775 23.5176C19.7314 23.7715 19.9316 24.0693 20.0781 24.4111C20.2246 24.7432 20.2979 25.0996 20.2979 25.4805C20.2979 25.8711 20.2246 26.2373 20.0781 26.5791C19.9316 26.9209 19.7314 27.2188 19.4775 27.4727C19.2236 27.7266 18.9258 27.9268 18.584 28.0732C18.252 28.2197 17.8955 28.293 17.5146 28.293C17.124 28.293 16.7578 28.2197 16.416 28.0732C16.0742 27.9268 15.7715 27.7266 15.5078 27.4727C15.2539 27.2188 15.0537 26.9209 14.9072 26.5791C14.7607 26.2373 14.6875 25.8711 14.6875 25.4805Z" fill="white"/>
</svg>
